<svg xmlns="http://www.w3.org/2000/svg" viewBox="0 0 64 64" role="img" aria-label="SkyWebPro mark">
  <defs>
    <linearGradient id="g1" x1="0" y1="0" x2="1" y2="1">
      <stop offset="0" stop-color="#0ea5e9"/>
      <stop offset="1" stop-color="#06b6d4"/>
    </linearGradient>
    <linearGradient id="g2" x1="1" y1="0" x2="0" y2="1">
      <stop offset="0" stop-color="#f59e0b"/>
      <stop offset="1" stop-color="#fb7185"/>
    </linearGradient>
  </defs>
  <rect x="4" y="4" width="56" height="56" rx="18" fill="#0f172a"/>
  <path d="M14 38c9 0 13-13 20-13 5 0 7 6 12 6 2 0 4-1 6-2-2 9-9 19-20 19-7 0-14-4-18-10z" fill="url(#g1)"/>
  <path d="M50 26c-8 0-11 9-17 9-5 0-7-5-12-5-2 0-4 1-7 2 3-9 10-16 20-16 7 0 13 4 16 10z" fill="url(#g2)"/>
</svg>
